<svg xmlns="http://www.w3.org/2000/svg" viewBox="0 0 640 512">
  <path fill="black" d="M368 32c26.5 0 48 21.5 48 48v208h52.5c15.4 0 29.7 7.1 39.1 19.1l69.4 86.8c7.2 9 11 20.2 11 31.7V448c0 35.3-28.7 64-64 64H512c-35.3 0-64-28.7-64-64h-256c0 35.3-28.7 64-64 64H48c-35.35 0-64-28.7-64-64V416c0-35.3 28.65-64 64-64h24c.02 0 .03 0 .05 0 0-.01 0-.01 0-.02V80c0-26.5 21.5-48 48-48h248zM56 368c-13.25 0-24 10.7-24 24v32c0 13.3 10.75 24 24 24s24-10.7 24-24v-32c0-13.3-10.75-24-24-24zm440 0c-13.3 0-24 10.7-24 24v32c0 13.3 10.7 24 24 24s24-10.7 24-24v-32c0-13.3-10.7-24-24-24zm-304-64c-44.2 0-80 35.8-80 80s35.8 80 80 80 80-35.8 80-80-35.8-80-80-80zm224 0c-44.2 0-80 35.8-80 80s35.8 80 80 80 80-35.8 80-80-35.8-80-80-80zM320 64H104c-8.84 0-16 7.2-16 16v224h184V64zm48 0v240h208l-55.4-69.3c-3-3.7-7.6-5.7-12.4-5.7H368V64z"/>
</svg>
